name C:\Users\u0150099\Documents\master_thesis\3dpredictsim\Results\debug\Fal_s1_mtp_sc_MTPp_k17_d05_ig21.mot
datacolumns 126
datarows 4
range 0.55460739 0.58788383
endheader
time	pelvis_tilt	pelvis_list	pelvis_rotation	pelvis_tx	pelvis_ty	pelvis_tz	hip_flexion_l	hip_adduction_l	hip_rotation_l	hip_flexion_r	hip_adduction_r	hip_rotation_r	knee_angle_l	knee_angle_r	ankle_angle_l	ankle_angle_r	subtalar_angle_l	subtalar_angle_r	mtj_angle_l	mtj_angle_r	mtp_angle_l	mtp_angle_r	lumbar_extension	lumbar_bending	lumbar_rotation	arm_flex_l	arm_add_l	arm_rot_l	arm_flex_r	arm_add_r	arm_rot_r	elbow_flex_l	elbow_flex_r	glut_med1_l/activation	glut_med2_l/activation	glut_med3_l/activation	glut_min1_l/activation	glut_min2_l/activation	glut_min3_l/activation	semimem_l/activation	semiten_l/activation	bifemlh_l/activation	bifemsh_l/activation	sar_l/activation	add_long_l/activation	add_brev_l/activation	add_mag1_l/activation	add_mag2_l/activation	add_mag3_l/activation	tfl_l/activation	pect_l/activation	grac_l/activation	glut_max1_l/activation	glut_max2_l/activation	glut_max3_l/activation	iliacus_l/activation	psoas_l/activation	quad_fem_l/activation	gem_l/activation	peri_l/activation	rect_fem_l/activation	vas_med_l/activation	vas_int_l/activation	vas_lat_l/activation	med_gas_l/activation	lat_gas_l/activation	soleus_l/activation	tib_post_l/activation	flex_dig_l/activation	flex_hal_l/activation	tib_ant_l/activation	per_brev_l/activation	per_long_l/activation	per_tert_l/activation	ext_dig_l/activation	ext_hal_l/activation	ercspn_l/activation	intobl_l/activation	extobl_l/activation	glut_med1_r/activation	glut_med2_r/activation	glut_med3_r/activation	glut_min1_r/activation	glut_min2_r/activation	glut_min3_r/activation	semimem_r/activation	semiten_r/activation	bifemlh_r/activation	bifemsh_r/activation	sar_r/activation	add_long_r/activation	add_brev_r/activation	add_mag1_r/activation	add_mag2_r/activation	add_mag3_r/activation	tfl_r/activation	pect_r/activation	grac_r/activation	glut_max1_r/activation	glut_max2_r/activation	glut_max3_r/activation	iliacus_r/activation	psoas_r/activation	quad_fem_r/activation	gem_r/activation	peri_r/activation	rect_fem_r/activation	vas_med_r/activation	vas_int_r/activation	vas_lat_r/activation	med_gas_r/activation	lat_gas_r/activation	soleus_r/activation	tib_post_r/activation	flex_dig_r/activation	flex_hal_r/activation	tib_ant_r/activation	per_brev_r/activation	per_long_r/activation	per_tert_r/activation	ext_dig_r/activation	ext_hal_r/activation	ercspn_r/activation	intobl_r/activation	extobl_r/activation	
          0.55460739	         -2.93002138	          2.17270077	         -5.65963817	          0.73762782	          0.91079300	          0.00476150	         30.41175273	          2.77978653	         -3.07739736	        -18.91680715	         -1.14120003	          8.18903666	        -10.52651643	         -4.10219686	          7.27449263	          0.47209173	         -2.84977763	         10.14799110	          0.27255735	         23.05521516	         -3.70678548	         -0.94431360	          2.13010281	         -8.83931339	        -13.54274171	          5.81148812	          9.35880404	        -13.62099980	         19.37397410	         17.92470767	         38.45699319	         86.51662706	         86.51662706	          0.06111204	          0.05000084	          0.05000008	          0.05000039	          0.05000047	          0.05001495	          0.25341462	          0.07110139	          0.35984056	          0.05924334	          0.05001000	          0.12813272	          0.12385468	          0.14455802	          0.14200161	          0.14472781	          0.05000143	          0.05173100	          0.12444724	          0.05924355	          0.05925312	          0.10564168	          0.05000007	          0.05000006	          0.15506186	          0.05000036	          0.05000092	          0.05000005	          0.05000040	          0.05000036	          0.05000027	          0.05000018	          0.05000033	          0.05899356	          0.05398485	          0.05000095	          0.05003328	          0.42260230	          0.31486846	          0.16620746	          0.20694032	          0.38398985	          0.18813901	          0.07938552	          0.08241269	          0.09951407	          0.25281994	          0.11676754	          0.08509710	          0.37145172	          0.26178777	          0.14534915	          0.05000059	          0.05000014	          0.05000011	          0.08278519	          0.13835317	          0.05000042	          0.05000008	          0.05000013	          0.05000034	          0.05000029	          0.63627840	          0.05000092	          0.05000023	          0.05000753	          0.05000103	          0.05000051	          0.51066344	          0.78113098	          0.05000008	          0.05000062	          0.07444025	          0.38305460	          0.05000044	          0.05000045	          0.05000032	          0.33509208	          0.45711159	          0.29449033	          0.32470115	          0.50307536	          0.53510683	          0.05000002	          0.05000050	          0.06989130	          0.05000012	          0.05000003	          0.05000015	          0.05000000	          0.05000000	          0.05000001	
          0.56569953	         -2.92924575	          2.32815274	         -6.02276394	          0.75519494	          0.90953548	          0.00443075	         29.97172705	          3.21239882	         -2.97325201	        -18.80044561	         -1.52505802	          8.07626628	        -10.38141929	         -6.07437799	          6.91407130	         -0.29635018	         -3.16461226	         11.10905168	          0.32290353	         24.16038260	         -3.53468202	         -1.17911219	          2.27256968	         -9.86016555	        -13.49029254	          5.52354088	          9.14527663	        -13.56570243	         19.37670467	         17.54523334	         39.88649076	         86.51662706	         86.51662706	          0.05924339	          0.05000717	          0.30153362	          0.05924346	          0.05924344	          0.05000102	          0.23243372	          0.06000788	          0.32593806	          0.05000018	          0.05000031	          0.17193450	          0.34422532	          0.20952923	          0.20173713	          0.16345510	          0.05000007	          0.08967133	          0.10504867	          0.05000027	          0.05000823	          0.21408618	          0.05924344	          0.05004159	          0.13086850	          0.23091078	          0.10723130	          0.05000153	          0.10260989	          0.10791364	          0.08781594	          0.05000001	          0.05000003	          0.05000000	          0.05000001	          0.05000024	          0.05000009	          0.51978557	          0.26700109	          0.14027512	          0.48126737	          0.44269747	          0.30230753	          0.06699940	          0.06955426	          0.08398740	          0.21337379	          0.09854890	          0.07181985	          0.31349608	          0.22094239	          0.12267108	          0.05000038	          0.05000010	          0.05000007	          0.06986865	          0.11676672	          0.14246119	          0.12138925	          0.05000050	          0.05000146	          0.05000030	          0.56016005	          0.14076790	          0.05005412	          0.05000128	          0.05000076	          0.05000058	          0.43098727	          0.74788704	          0.05002329	          0.05000096	          0.06282576	          0.37300138	          0.07310413	          0.07559285	          0.05136392	          0.28280936	          0.38579082	          0.25279452	          0.31035720	          0.49546662	          0.53187045	          0.05000001	          0.05000027	          0.06380410	          0.05000006	          0.05000001	          0.05000009	          0.05007146	          0.05000002	          0.05000001	
          0.57679168	         -2.92410962	          2.48235083	         -6.36117880	          0.77310513	          0.90833403	          0.00407937	         29.48598097	          3.61479032	         -2.82371997	        -18.58202260	         -1.90306273	          7.94416339	        -10.93649139	         -8.21453420	          6.29716319	         -1.26724198	         -3.45682204	         12.07112345	          0.36758212	         25.12655250	         -3.33835161	         -1.41352868	          2.40507920	        -10.90196908	        -13.45855510	          5.54546017	          8.81712513	        -13.51328234	         19.30303703	         17.20495555	         41.34241041	         86.51662706	         86.51662706	          0.05000000	          0.05000004	          0.25448701	          0.05000003	          0.05000003	          0.05000006	          0.19616828	          0.06291337	          0.27508361	          0.05000017	          0.05000039	          0.14510854	          0.35952022	          0.42087044	          0.30144718	          0.18684714	          0.05000036	          0.07568118	          0.19479664	          0.12438240	          0.12985842	          0.18666640	          0.05000003	          0.05000009	          0.48479871	          0.19488297	          0.09050057	          0.05015997	          0.08660030	          0.09107654	          0.07411456	          0.05924345	          0.06852443	          0.05000004	          0.05876058	          0.05000124	          0.05924256	          0.43868611	          0.33277189	          0.16921866	          0.40617786	          0.43248255	          0.25514007	          0.05654583	          0.05870206	          0.07088327	          0.18008219	          0.08317283	          0.06061418	          0.26458296	          0.18646990	          0.10353136	          0.05000590	          0.05000037	          0.05000044	          0.05896742	          0.09854826	          0.22608589	          0.16922485	          0.20594278	          0.05930378	          0.05938305	          0.47286460	          0.11880493	          0.05000059	          0.05001798	          0.05001889	          0.05919857	          0.36374253	          0.69708959	          0.05000039	          0.05924276	          0.05924331	          0.32564730	          0.16393154	          0.16393155	          0.16393132	          0.23868405	          0.32559784	          0.21335228	          0.27882856	          0.41816454	          0.45587566	          0.05000001	          0.05000005	          0.05526570	          0.05000004	          0.05000001	          0.05000008	          0.07453018	          0.06513231	          0.05640336	
          0.58788383	         -2.91531041	          2.64396174	         -6.66879682	          0.79124029	          0.90719628	          0.00373130	         28.92509444	          3.92905099	         -2.64185547	        -18.27686896	         -2.27896258	          7.78852365	        -11.87129786	        -10.46824118	          5.72233132	         -2.47606592	         -3.76248391	         12.98988458	          0.20740676	         25.90797174	         -3.12697676	         -1.65479958	          2.52392532	        -11.93638569	        -13.44999516	          5.82779672	          8.39185372	        -13.47030045	         19.19561812	         16.88810665	         42.82867818	         86.51662706	         86.51662706	          0.29840784	          0.28966502	          0.40420882	          0.43201655	          0.24714274	          0.15264554	          0.16556116	          0.08800337	          0.23216372	          0.06209998	          0.05000102	          0.12246804	          0.30342629	          0.35520426	          0.25441412	          0.21582974	          0.05000019	          0.06390158	          0.16440447	          0.21575435	          0.18616689	          0.21298689	          0.05924321	          0.05000043	          0.40915808	          0.16447645	          0.15074586	          0.05000003	          0.07308855	          0.07686638	          0.06255088	          0.05000026	          0.05783301	          0.05532553	          0.05000242	          0.05000032	          0.05000056	          0.54046335	          0.29751800	          0.14924211	          0.57166353	          0.48529752	          0.31088995	          0.08060793	          0.08323193	          0.05982373	          0.25943306	          0.07019581	          0.05115687	          0.27067153	          0.15737599	          0.08737791	          0.05000081	          0.05000010	          0.05000008	          0.05000008	          0.08317237	          0.19081093	          0.18188086	          0.17381063	          0.05005125	          0.05011796	          0.55509948	          0.10026909	          0.05000072	          0.05000128	          0.05000071	          0.05000051	          0.30698966	          0.65528795	          0.05000013	          0.05000037	          0.05000006	          0.27483821	          0.13835419	          0.13835420	          0.13835401	          0.20144339	          0.27479647	          0.18006400	          0.23532459	          0.35292060	          0.38474788	          0.05000000	          0.06274336	          0.09881043	          0.05000005	          0.05000001	          0.05000006	          0.07245451	          0.05497005	          0.05000002	
